<?xml version="1.0" standalone="no"?>
<!DOCTYPE svg PUBLIC "-//W3C//DTD SVG 20010904//EN"
 "http://www.w3.org/TR/2001/REC-SVG-20010904/DTD/svg10.dtd">
<svg version="1.0" xmlns="http://www.w3.org/2000/svg"
 width="8.000000pt" height="8.000000pt" viewBox="0 0 512.000000 512.000000"
 preserveAspectRatio="xMidYMid meet">

<g transform="translate(0.000000,512.000000) scale(0.100000,-0.100000)"
fill="green" stroke="none">
<path d="M2435 5114 c-227 -34 -402 -100 -562 -213 -290 -205 -469 -513 -503
-867 -52 -543 265 -1043 786 -1239 237 -89 571 -89 808 0 445 168 738 546 787
1017 24 232 -31 491 -146 693 -177 310 -462 518 -810 590 -78 16 -299 28 -360
19z"/>
<path d="M1980 2579 c-725 -47 -1350 -563 -1531 -1264 -47 -182 -50 -220 -55
-700 l-5 -460 23 -44 c13 -25 40 -59 61 -75 l39 -31 2048 0 2048 0 39 31 c21
16 48 50 61 75 l23 44 -5 460 c-5 480 -8 518 -55 700 -125 485 -483 910 -936
1113 -203 91 -392 138 -620 153 -164 10 -968 9 -1135 -2z"/>
</g>
</svg>
