<?xml version="1.0" standalone="no"?>
<!DOCTYPE svg PUBLIC "-//W3C//DTD SVG 20010904//EN"
 "http://www.w3.org/TR/2001/REC-SVG-20010904/DTD/svg10.dtd">
<svg version="1.0" xmlns="http://www.w3.org/2000/svg"
 width="12.000000pt" height="12.000000pt" viewBox="0 0 512.000000 512.000000"
 preserveAspectRatio="xMidYMid meet">

<g transform="translate(0.000000,512.000000) scale(0.100000,-0.100000)"
fill="#fd5e53" stroke="none">
<path d="M1114 4846 c-442 -82 -767 -407 -838 -841 -15 -90 -17 -238 -14
-1490 l3 -1390 28 -100 c100 -365 367 -632 736 -733 l96 -27 1435 0 1435 0
100 27 c365 101 632 368 733 737 l27 96 0 1435 0 1435 -27 96 c-101 369 -368
636 -733 736 l-100 28 -1405 2 c-1112 1 -1420 -1 -1476 -11z m476 -922 c46
-21 127 -97 512 -482 l458 -457 452 452 c505 504 503 503 629 503 82 0 145
-21 198 -66 88 -76 124 -187 96 -295 -8 -34 -25 -75 -36 -93 -12 -17 -223
-232 -468 -478 l-446 -448 446 -447 c245 -247 456 -462 468 -479 11 -18 28
-59 36 -93 48 -184 -94 -365 -285 -366 -130 0 -115 -13 -628 499 l-462 461
-458 -457 c-523 -523 -512 -514 -651 -506 -167 10 -281 128 -281 293 0 130 -5
124 508 638 l457 457 -457 458 c-513 513 -508 507 -508 637 0 120 64 220 174
271 72 34 171 33 246 -2z"/>
</g>
</svg>
