<!DOCTYPE svg PUBLIC "-//W3C//DTD SVG 1.1//EN" "http://www.w3.org/Graphics/SVG/1.1/DTD/svg11.dtd">
<!-- Uploaded to: SVG Repo, www.svgrepo.com, Transformed by: SVG Repo Mixer Tools -->
<svg height="76px" width="76px" version="1.1" id="Layer_1" xmlns="http://www.w3.org/2000/svg" xmlns:xlink="http://www.w3.org/1999/xlink" viewBox="-168.96 -168.96 849.92 849.92" xml:space="preserve" fill="#000000">
<g id="SVGRepo_bgCarrier" stroke-width="0" transform="translate(0,0), scale(1)">
<rect x="-168.96" y="-168.96" width="849.92" height="849.92" rx="424.96" fill="#ffffff" strokewidth="0"/>
</g>
<g id="SVGRepo_tracerCarrier" stroke-linecap="round" stroke-linejoin="round"/>
<g id="SVGRepo_iconCarrier"> <g> <polygon style="fill:#FFFFFF;" points="78.073,174.181 106.521,152.842 292.011,224.957 214.695,268.753 "/> <path style="fill:#FFFFFF;" d="M244.749,349.083c-14.009,6.399-58.246,22.91-58.526,23.015 c-36.186,12.845-81.145,17.721-96.969,2.199l-3.84-3.781l37.152-26.505c5.643-0.477,11.1-2.234,15.347-5.05L338.39,225.434 l62.621,36.558C372.551,278.934,284.89,330.676,244.749,349.083z"/> </g> <g> <path style="fill:#72C6EF;" d="M466.867,39.584c-2.618,0-5.085,0.512-7.412,1.326c0.023-0.454,0.14-0.873,0.14-1.326 c0-15.428-13.02-27.925-29.088-27.925c-16.068,0-29.088,12.496-29.088,27.925c0,0.454,0.116,0.873,0.14,1.326 c-2.327-0.814-4.794-1.326-7.412-1.326c-12.054,0-21.816,9.378-21.816,20.944s9.762,20.944,21.816,20.944h72.721 c12.043,0,21.816-9.378,21.816-20.944S478.909,39.584,466.867,39.584z"/> <path style="fill:#72C6EF;" d="M385.419,62.854c-2.618,0-5.085,0.512-7.412,1.326c0.023-0.454,0.14-0.873,0.14-1.326 c0-15.417-13.02-27.925-29.088-27.925s-29.088,12.508-29.088,27.925c0,0.454,0.116,0.873,0.14,1.326 c-2.327-0.814-4.794-1.326-7.412-1.326c-12.054,0-21.816,9.378-21.816,20.944s9.762,20.944,21.816,20.944h72.721 c12.043,0,21.816-9.378,21.816-20.944S397.462,62.854,385.419,62.854z"/> </g> <path style="fill:#00384E;" d="M500.318,500.342H11.635C5.213,500.342,0,495.141,0,488.706c0-6.434,5.213-11.635,11.635-11.635 h488.683c6.423,0,11.635,5.201,11.635,11.635C511.953,495.141,506.741,500.342,500.318,500.342z"/> <g> <path style="fill:#FAA85F;" d="M423.176,261.469l-84.705-49.45l6.399-3.607c30.252-17.802,132.875-50.148,152.888-24.085 C513.35,204.689,455.29,238.664,423.176,261.469z"/> <path style="fill:#FAA85F;" d="M118.564,332.561l-51.195,36.535l-55.733-54.919l35.604-23.271l58.06,37.349 C109.256,331.048,113.91,332.444,118.564,332.561z"/> </g> <path style="fill:#00384E;" d="M506.985,177.229c-27.913-36.302-142.905,6.353-167.816,21.048l-6.399,3.607l0,0 c-0.012,0-0.012,0-0.023,0.012l-14.602,8.273l-209.203-81.354c-3.747-1.466-7.982-0.884-11.205,1.524l-46.541,34.906 c-2.99,2.234-4.724,5.783-4.654,9.518c0.07,3.747,1.943,7.226,5.015,9.355l140.648,97.376l-66.426,37.629 c-1.931,1.257-4.282,2.013-6.644,1.815c-0.047,0-0.081,0.023-0.128,0.012c-0.058,0-0.105-0.023-0.151-0.023 c-2.536-0.058-4.91-0.814-7.26-2.455l-58.06-37.349c-3.863-2.502-8.82-2.455-12.659,0.047L5.271,304.438 c-2.944,1.92-4.864,5.085-5.213,8.575c-0.349,3.502,0.908,6.981,3.409,9.448L59.2,377.368l0.012,0.012l13.753,13.509 c12.531,12.287,31.357,16.266,50.497,16.266c32.102,0,65.076-11.205,70.731-13.218c1.85-0.686,45.471-16.964,60.248-23.701 c49.241-22.584,162.941-90.907,167.758-93.804c0.407-0.244,5.201-3.77,7.54-5.364c0.035-0.023,0.047-0.058,0.07-0.07 c0.035-0.023,0.07-0.035,0.105-0.058c4.782-3.398,10.146-7.039,15.754-10.856c36.593-24.888,62.749-44.04,65.995-64.18 C512.768,189.132,511.151,182.675,506.985,177.229z M78.073,174.181l28.448-21.339L292,224.969l-77.317,43.795L78.073,174.181z M47.286,304.764l47.437,30.508l-26.156,18.663l-38.49-37.931L47.286,304.764z M244.749,349.083 c-14.009,6.399-58.246,22.91-58.526,23.015c-36.186,12.845-81.145,17.721-96.969,2.199l-3.84-3.781l37.152-26.505 c5.643-0.477,11.1-2.234,15.347-5.05L338.39,225.434l62.621,36.558C372.551,278.934,284.89,330.676,244.749,349.083z M432.589,240.851c-3.432,2.339-6.783,4.608-9.971,6.807l-60.271-35.174c39.804-18.302,115.143-35.441,126.371-20.757 C491.126,201.047,447.063,231.019,432.589,240.851z"/> </g>
</svg>