<svg width="59" height="41" viewBox="0 0 59 41" fill="none" xmlns="http://www.w3.org/2000/svg">
<path fill-rule="evenodd" clip-rule="evenodd" d="M0 12.2999L8.4852 4.20491C14.3616 -1.40164 23.9776 -1.40164 29.8543 4.20491C32.2346 6.47585 33.6508 9.33227 34.1027 12.2999H0Z" fill="#353B50"/>
<path fill-rule="evenodd" clip-rule="evenodd" d="M0 12.2969H33.4446H43.3523C51.5319 12.2969 58.2242 18.7543 58.2242 26.6469C58.2242 34.5394 51.5319 40.9967 43.3523 40.9967H16.8264L0 12.2969Z" fill="#03C166"/>
<path fill-rule="evenodd" clip-rule="evenodd" d="M20.2664 24.9448H18.3008V22.6385H20.2664V20.9858C20.2664 20.4735 20.3127 19.9895 20.4054 19.5349C20.498 19.0801 20.6765 18.6796 20.9415 18.3336C21.2062 17.9877 21.5869 17.7156 22.0834 17.5167C22.5798 17.3184 23.2316 17.2188 24.0391 17.2188C24.3436 17.2188 24.6415 17.2318 24.9327 17.2574C25.2239 17.283 25.5085 17.3281 25.7867 17.3919L25.6475 19.8324C25.4754 19.7686 25.3166 19.7207 25.171 19.6884C25.0253 19.6568 24.8599 19.6405 24.6745 19.6405C24.1982 19.6405 23.8406 19.7399 23.6023 19.9383C23.364 20.1371 23.2449 20.5437 23.2449 21.1585V22.6385H25.449V24.9448H23.2449V31.9787H20.2664V24.9448Z" fill="white"/>
<path fill-rule="evenodd" clip-rule="evenodd" d="M28.2812 31.9787H30.7766V17.2188H28.2812V31.9787Z" fill="white"/>
<path fill-rule="evenodd" clip-rule="evenodd" d="M33.5018 31.9792H36.37V22.6475H33.5018V31.9792ZM33.2715 19.7098C33.2715 19.2489 33.4341 18.8552 33.7592 18.5288C34.0842 18.2024 34.4761 18.0391 34.935 18.0391C35.3939 18.0391 35.786 18.2024 36.1109 18.5288C36.4362 18.8552 36.5986 19.2489 36.5986 19.7098C36.5986 20.1706 36.4362 20.5641 36.1109 20.8905C35.786 21.2169 35.3939 21.38 34.935 21.38C34.4761 21.38 34.0842 21.2169 33.7592 20.8905C33.4341 20.5641 33.2715 20.1706 33.2715 19.7098Z" fill="white"/>
<path fill-rule="evenodd" clip-rule="evenodd" d="M41.7022 27.0368C41.7022 27.7409 41.9006 28.3105 42.2975 28.7455C42.6945 29.1809 43.2523 29.3983 43.9707 29.3983C44.689 29.3983 45.2466 29.1809 45.6438 28.7455C46.0407 28.3105 46.2391 27.7409 46.2391 27.0368C46.2391 26.333 46.0407 25.7632 45.6438 25.328C45.2466 24.8927 44.689 24.6751 43.9707 24.6751C43.2523 24.6751 42.6945 24.8927 42.2975 25.328C41.9006 25.7632 41.7022 26.333 41.7022 27.0368ZM39.0938 22.371H41.7025V23.6001H41.7403C41.8537 23.4339 42.0017 23.264 42.1847 23.0912C42.3672 22.9184 42.5816 22.7619 42.8274 22.6206C43.0731 22.4803 43.3406 22.3649 43.6307 22.2753C43.9206 22.1859 44.2291 22.1406 44.557 22.1406C45.2375 22.1406 45.8548 22.2594 46.4096 22.4959C46.9641 22.733 47.4397 23.0658 47.8367 23.4944C48.2339 23.9234 48.5392 24.4321 48.7537 25.0207C48.9679 25.6098 49.075 26.2564 49.075 26.96C49.075 27.6128 48.9773 28.237 48.7819 28.8322C48.5866 29.4274 48.3093 29.9555 47.9504 30.4164C47.5912 30.8769 47.1531 31.2451 46.6364 31.5203C46.1195 31.7955 45.5335 31.9332 44.8784 31.9332C44.2858 31.9332 43.7348 31.8403 43.2244 31.6547C42.7137 31.4693 42.2948 31.1524 41.9671 30.7041H41.9293V36.0806H39.0938V22.371Z" fill="white"/>
</svg>
