<?xml version="1.0" standalone="no"?>
<!DOCTYPE svg PUBLIC "-//W3C//DTD SVG 20010904//EN"
 "http://www.w3.org/TR/2001/REC-SVG-20010904/DTD/svg10.dtd">
<svg version="1.0" xmlns="http://www.w3.org/2000/svg"
 width="20.000000pt" height="20.000000pt" viewBox="0 0 512.000000 512.000000"
 preserveAspectRatio="xMidYMid meet">

<g transform="translate(0.000000,512.000000) scale(0.100000,-0.100000)"
fill="#4ad295" stroke="none">
<path d="M830 5110 c-329 -5 -336 -6 -401 -31 -99 -38 -156 -75 -235 -151
-113 -109 -165 -229 -183 -420 -6 -64 -7 -331 -2 -703 8 -579 9 -603 30 -675
77 -258 244 -390 553 -436 149 -22 1287 -16 1364 8 198 60 333 172 416 344 65
136 67 160 68 856 0 705 -1 715 -74 863 -96 195 -267 316 -486 345 -78 10
-474 10 -1050 0z"/>
<path d="M3240 5110 c-143 -18 -255 -74 -366 -185 -97 -96 -156 -203 -179
-328 -22 -118 -22 -1283 0 -1395 48 -239 233 -434 475 -499 59 -16 126 -18
725 -18 653 0 661 1 740 23 132 37 201 76 291 166 117 117 165 228 183 424 4
48 6 355 4 682 -4 470 -8 608 -19 655 -49 206 -225 389 -444 461 -50 17 -109
18 -700 20 -355 1 -674 -2 -710 -6z"/>
<path d="M536 2424 c-246 -38 -450 -228 -512 -473 -14 -55 -16 -154 -17 -715
-2 -729 -2 -734 70 -885 52 -109 162 -220 267 -271 158 -75 159 -75 891 -74
709 1 707 1 830 60 179 85 304 240 355 440 19 73 20 112 20 663 0 637 -5 707
-55 858 -69 203 -200 323 -422 385 -76 22 -94 22 -708 24 -500 2 -648 0 -719
-12z"/>
<path d="M3751 2430 c-407 -52 -764 -305 -948 -675 -200 -401 -148 -891 135
-1272 253 -338 662 -517 1084 -473 290 30 508 132 713 335 251 248 375 545
375 895 0 330 -120 613 -359 851 -221 218 -489 332 -811 344 -63 2 -148 0
-189 -5z"/>
</g>
</svg>
