<!DOCTYPE svg PUBLIC "-//W3C//DTD SVG 1.1//EN" "http://www.w3.org/Graphics/SVG/1.1/DTD/svg11.dtd">

<!-- Uploaded to: SVG Repo, www.svgrepo.com, Transformed by: SVG Repo Mixer Tools -->
<svg fill="#000000" version="1.1" id="Capa_1" xmlns="http://www.w3.org/2000/svg" xmlns:xlink="http://www.w3.org/1999/xlink" width="32px" height="32px" viewBox="0 0 83.817 83.817" xml:space="preserve" transform="matrix(-1, 0, 0, 1, 0, 0)">

<g id="SVGRepo_bgCarrier" stroke-width="0"/>

<g id="SVGRepo_tracerCarrier" stroke-linecap="round" stroke-linejoin="round"/>

<g id="SVGRepo_iconCarrier"> <g> <path d="M10.974,38.793c-1.718,0-3.116,1.397-3.116,3.115c0,1.719,1.398,3.116,3.116,3.116c1.718,0,3.116-1.397,3.116-3.116 C14.09,40.19,12.692,38.793,10.974,38.793z M10.974,43.024c-0.615,0-1.116-0.5-1.116-1.116c0-0.615,0.5-1.115,1.116-1.115 c0.616,0,1.116,0.5,1.116,1.115C12.09,42.524,11.59,43.024,10.974,43.024z"/> <g> <path d="M56.382,38.856l-1.688-3.421l-1.688,3.42c-0.146,0.295-0.427,0.5-0.753,0.547l-3.776,0.549l2.731,2.662 c0.236,0.23,0.343,0.561,0.287,0.885l-0.645,3.76l3.376-1.774c0.146-0.077,0.306-0.115,0.466-0.115 c0.158,0,0.319,0.038,0.465,0.115l3.377,1.774l-0.646-3.76c-0.056-0.324,0.052-0.654,0.288-0.885l2.73-2.662l-3.774-0.549 C56.808,39.355,56.528,39.151,56.382,38.856z"/> <path d="M34.23,38.855l-1.688-3.42l-1.688,3.42c-0.146,0.295-0.427,0.5-0.753,0.547l-3.776,0.549l2.731,2.662 c0.236,0.23,0.343,0.561,0.288,0.885l-0.645,3.76l3.376-1.774c0.291-0.153,0.64-0.153,0.931,0l3.377,1.774l-0.646-3.76 c-0.055-0.324,0.052-0.654,0.288-0.885l2.732-2.662l-3.776-0.549C34.657,39.355,34.376,39.151,34.23,38.855z"/> <path d="M41.908,0C18.762,0,0,18.763,0,41.909c0,23.146,18.763,41.908,41.908,41.908s41.909-18.763,41.909-41.908 C83.817,18.763,65.053,0,41.908,0z M69.347,58.934H19.329c-0.537,0-1.273,0-15.48-16.369c-0.326-0.376-0.326-0.935,0-1.311 c14.208-16.37,14.943-16.37,15.48-16.37h50.018c1.367,0,2.479,1.112,2.479,2.479v29.092 C71.827,57.822,70.714,58.934,69.347,58.934z"/> <path d="M69.347,26.884H19.6c-1.334,1.079-7.81,8.288-13.671,15.025c5.861,6.737,12.337,13.946,13.671,15.024h49.747 c0.265,0,0.479-0.215,0.479-0.479V27.363C69.827,27.098,69.612,26.884,69.347,26.884z M41.606,39.969L37.8,43.678l0.899,5.239 c0.064,0.375-0.09,0.755-0.398,0.979s-0.716,0.253-1.053,0.075l-4.705-2.474l-4.705,2.474c-0.146,0.078-0.306,0.115-0.465,0.115 c-0.207,0-0.414-0.063-0.588-0.19c-0.308-0.224-0.462-0.604-0.398-0.979l0.898-5.239l-3.806-3.708 c-0.273-0.266-0.371-0.663-0.253-1.025c0.118-0.362,0.431-0.626,0.807-0.681l5.261-0.765l2.352-4.766 c0.337-0.683,1.457-0.683,1.794,0l2.352,4.766l5.261,0.765c0.376,0.055,0.689,0.319,0.807,0.681 C41.978,39.306,41.879,39.704,41.606,39.969z M63.756,39.969l-3.807,3.708l0.899,5.239c0.063,0.375-0.09,0.755-0.397,0.979 c-0.174,0.126-0.381,0.19-0.588,0.19c-0.16,0-0.319-0.037-0.465-0.115l-4.707-2.474l-4.705,2.474 c-0.336,0.178-0.744,0.148-1.053-0.075c-0.308-0.224-0.462-0.604-0.398-0.979l0.898-5.239l-3.806-3.708 c-0.272-0.266-0.371-0.663-0.253-1.025c0.117-0.362,0.431-0.626,0.807-0.681l5.262-0.765l2.352-4.766 c0.336-0.682,1.456-0.684,1.793,0l2.354,4.766l5.26,0.765c0.375,0.055,0.688,0.319,0.807,0.681 C64.127,39.306,64.03,39.704,63.756,39.969z"/> </g> </g> </g>

</svg>